<?xml version="1.0" encoding="UTF-8"?>
<svg id="Layer_1" data-name="Layer 1" xmlns="http://www.w3.org/2000/svg" xmlns:xlink="http://www.w3.org/1999/xlink" viewBox="0 0 350 100">
  <defs>
    <style>
      .cls-1 {
        letter-spacing: 0em;
      }

      .cls-1, .cls-2, .cls-3, .cls-4 {
        font-family: RobotoSerifNormalRoman-SemiBold, 'Roboto Serif';
        font-size: 25.11px;
        font-variation-settings: 'wdth' 100, 'opsz' 20, 'wght' 600, 'GRAD' 0;
        font-weight: 600;
      }

      .cls-2 {
        letter-spacing: 0em;
      }

      .cls-5 {
        letter-spacing: -.03em;
      }

      .cls-5, .cls-6 {
        font-family: RobotoSerifNormalItalic-Light, 'Roboto Serif';
        font-size: 20.75px;
        font-variation-settings: 'wdth' 100, 'opsz' 20, 'wght' 300, 'GRAD' 0;
        font-weight: 300;
      }

      .cls-7 {
        fill: url(#linear-gradient);
      }

      .cls-7, .cls-8 {
        stroke-width: 0px;
      }

      .cls-9 {
        fill: #fff;
      }

      .cls-4 {
        letter-spacing: 0em;
      }

      .cls-8 {
        fill: #6a976c;
      }
    </style>
    <linearGradient id="linear-gradient" x1="179.54" y1="38.61" x2="179.54" y2="96" gradientUnits="userSpaceOnUse">
      <stop offset=".11" stop-color="#2484c6"/>
      <stop offset=".2" stop-color="#2484c6" stop-opacity=".97"/>
      <stop offset=".31" stop-color="#2484c6" stop-opacity=".89"/>
      <stop offset=".45" stop-color="#2484c6" stop-opacity=".75"/>
      <stop offset=".59" stop-color="#2484c6" stop-opacity=".56"/>
      <stop offset=".74" stop-color="#2484c6" stop-opacity=".32"/>
      <stop offset=".9" stop-color="#2484c6" stop-opacity=".03"/>
      <stop offset=".92" stop-color="#2484c6" stop-opacity="0"/>
    </linearGradient>
  </defs>
  <g>
    <path class="cls-8" d="m7.46,61.67c7.5-10.81,18.56-25.19,31.19-29.93,7.15-2.2,14.81-.71,21.9.95,7.1,1.82,13.99,4.39,20.53,7.75,0,0-1.16.09-1.16.09,5.24-4.14,9.9-9.19,15.09-13.72,18.26-16.46,35.46-19.21,57.98-9.59,25.23,10.84,47.71,26.89,70.68,41.68,0,0-1.03-.18-1.03-.18,5.11-1.2,10.08-3.09,14.91-5.32,9.73-4.48,18.93-10.07,28.49-14.97,4.82-2.43,9.76-4.77,15.08-6.19,5.3-1.54,11-1.12,16.35.09,5.39,1.2,10.14,4.29,14.23,7.86,7.25,6.31,16.21,15.79,23.09,22.57-7.94-7.21-15.53-14.9-23.75-21.77-2.1-1.64-4.21-3.28-6.54-4.51-4.64-2.58-9.97-3.39-15.21-3.62-7.98-.05-15.3,3.8-22.29,7.39-4.72,2.51-9.35,5.23-14.03,7.89-9.58,5.43-19.41,10.76-30.27,13.29-11.59-7.55-23.2-15.08-34.99-22.28-11.59-7.02-23.35-13.99-35.82-19.27-6.21-2.58-12.66-4.67-19.24-5.36-9.94-.97-19.92,2.3-28.04,7.99-8.71,5.87-15.5,13.73-23.94,20.17-11.12-5.9-29.16-12.85-41.63-9.66-12.4,4.26-23.84,18.37-31.6,28.65h0Z"/>
    <path class="cls-7" d="m222.95,60.01c-17.95.29-25.04,1.22-25.13,2.51-.14,2.01,16.59,3.83,16.49,5.65-.22,4.27-92.15,3.6-92.2,5.97-.02.9,13.12.98,13.66,4.4.31,1.93-3.44,4.66-13.19,8.48l79.79-.79s-11.47-6.28,6.13-7.38c17.59-1.1,46.33-9.74,13.35-13.82-4.55-.31-6.43-3.01,1.1-5.03Z"/>
  </g>
  <text class="cls-9" transform="translate(32.03 59.78)"><tspan class="cls-1" x="0" y="0">S</tspan><tspan class="cls-3" x="15.85" y="0">pring Hil</tspan><tspan class="cls-2" x="127.14" y="0">l</tspan><tspan class="cls-3" x="135.33" y="0">s </tspan><tspan class="cls-4" x="154.29" y="0">R</tspan><tspan class="cls-3" x="172.4" y="0" xml:space="preserve">anch  </tspan><tspan class="cls-6" x="247" y="0">L</tspan><tspan class="cls-5" x="259.56" y="0">L</tspan><tspan class="cls-6" x="271.56" y="0">C</tspan></text>
</svg>