<svg width="600" height="200" viewBox="0 0 600 200" fill="none" xmlns="http://www.w3.org/2000/svg">
<path d="M31.64 116.48C31.64 116.48 56.34 80 77.53 74.68C91.92 71.07 117.59 78.73 134.85 87.87C151.18 75.56 170.4 48.01 202.9 47.74C231.28 47.5 268.84 70.2 335.81 114.14C369.78 106.3 405.57 72.95 430.36 74.68C453.36 76.28 457.07 82.88 493.69 118.02" stroke="#6A976C" stroke-width="3" stroke-miterlimit="10"/>
<path d="M335.8 114.13C310.47 114.53 300.46 115.85 300.33 117.68C300.13 120.51 323.74 123.08 323.61 125.66C323.29 131.68 193.54 130.74 193.48 134.08C193.46 135.34 212 135.46 212.77 140.29C213.2 143.02 207.91 146.87 194.15 152.26L306.77 151.15C306.77 151.15 290.59 142.28 315.42 140.73C340.25 139.18 380.82 126.98 334.26 121.22C327.83 120.78 325.18 116.98 335.81 114.13H335.8Z" fill="url(#paint0_linear_579_25)"/>
<path d="M68.688 114.252C69.78 114.252 70.718 114.098 71.502 113.79C72.286 113.454 72.888 112.964 73.308 112.32C73.756 111.676 73.98 110.85 73.98 109.842C73.98 108.974 73.77 108.246 73.35 107.658C72.958 107.07 72.398 106.58 71.67 106.188C70.97 105.768 70.144 105.404 69.192 105.096C68.24 104.788 67.204 104.466 66.084 104.13C64.992 103.822 63.914 103.444 62.85 102.996C61.814 102.548 60.862 101.988 59.994 101.316C59.154 100.616 58.482 99.748 57.978 98.712C57.474 97.676 57.222 96.402 57.222 94.89C57.222 93.126 57.656 91.628 58.524 90.396C59.42 89.136 60.596 88.17 62.052 87.498C63.508 86.826 65.104 86.49 66.84 86.49C68.324 86.49 69.64 86.7 70.788 87.12C71.964 87.512 72.986 88.184 73.854 89.136C74.75 90.06 75.506 91.32 76.122 92.916L74.232 92.706L74.988 86.91H77.676V94.764H74.61C74.246 93.616 73.714 92.65 73.014 91.866C72.314 91.054 71.502 90.438 70.578 90.018C69.682 89.598 68.688 89.388 67.596 89.388C66.56 89.388 65.678 89.542 64.95 89.85C64.25 90.158 63.704 90.606 63.312 91.194C62.948 91.782 62.766 92.496 62.766 93.336C62.766 94.12 62.962 94.792 63.354 95.352C63.774 95.884 64.32 96.332 64.992 96.696C65.692 97.06 66.49 97.382 67.386 97.662C68.31 97.914 69.29 98.18 70.326 98.46C71.53 98.768 72.678 99.146 73.77 99.594C74.89 100.042 75.898 100.616 76.794 101.316C77.69 101.988 78.39 102.842 78.894 103.878C79.426 104.914 79.692 106.188 79.692 107.7C79.692 109.632 79.244 111.312 78.348 112.74C77.452 114.168 76.22 115.26 74.652 116.016C73.084 116.772 71.25 117.15 69.15 117.15C67.526 117.15 65.972 116.898 64.488 116.394C63.032 115.89 61.744 115.078 60.624 113.958C59.504 112.838 58.622 111.34 57.978 109.464L59.994 110.01L59.28 116.73H56.424V107.448H59.658C60.134 108.848 60.82 110.066 61.716 111.102C62.612 112.11 63.648 112.894 64.824 113.454C66.028 113.986 67.316 114.252 68.688 114.252ZM94.809 126.096H82.335V123.87H82.419C82.895 123.87 83.329 123.828 83.721 123.744C84.113 123.66 84.421 123.52 84.645 123.324C84.897 123.128 85.023 122.862 85.023 122.526V99.174C85.023 98.838 84.939 98.586 84.771 98.418C84.603 98.222 84.351 98.068 84.015 97.956C83.679 97.844 83.245 97.732 82.713 97.62L82.335 97.536V95.226H90.903V100.602L91.365 100.812V123.492C91.365 123.576 91.519 123.646 91.827 123.702C92.135 123.758 92.499 123.8 92.919 123.828C93.367 123.856 93.759 123.87 94.095 123.87H94.809V126.096ZM97.749 117.15C96.601 117.15 95.579 117.01 94.683 116.73C93.815 116.422 93.017 115.946 92.289 115.302C91.589 114.658 90.917 113.846 90.273 112.866L90.525 108.792C91.001 109.884 91.519 110.822 92.079 111.606C92.639 112.39 93.255 112.992 93.927 113.412C94.627 113.804 95.425 114 96.321 114C97.133 114 97.847 113.818 98.463 113.454C99.079 113.062 99.583 112.502 99.975 111.774C100.367 111.046 100.661 110.178 100.857 109.17C101.081 108.162 101.193 107.028 101.193 105.768C101.193 104.536 101.095 103.444 100.899 102.492C100.703 101.512 100.409 100.686 100.017 100.014C99.625 99.342 99.135 98.838 98.547 98.502C97.987 98.166 97.329 97.998 96.573 97.998C95.677 97.998 94.865 98.222 94.137 98.67C93.437 99.118 92.779 99.762 92.163 100.602C91.575 101.442 91.015 102.464 90.483 103.668L90.273 100.056C91.001 98.88 91.729 97.914 92.457 97.158C93.213 96.374 94.039 95.786 94.935 95.394C95.859 95.002 96.923 94.806 98.127 94.806C100.059 94.806 101.739 95.268 103.167 96.192C104.623 97.088 105.743 98.362 106.527 100.014C107.339 101.638 107.745 103.556 107.745 105.768C107.745 108.008 107.325 109.982 106.485 111.69C105.645 113.398 104.469 114.742 102.957 115.722C101.473 116.674 99.737 117.15 97.749 117.15ZM126.729 95.058V100.644C126.533 100.56 126.295 100.504 126.015 100.476C125.763 100.42 125.483 100.378 125.175 100.35C124.895 100.322 124.601 100.308 124.293 100.308C123.621 100.308 123.005 100.392 122.445 100.56C121.913 100.7 121.423 100.924 120.975 101.232C120.527 101.54 120.121 101.946 119.757 102.45C119.393 102.954 119.029 103.57 118.665 104.298L118.623 101.904C119.043 100.532 119.533 99.328 120.093 98.292C120.681 97.228 121.381 96.402 122.193 95.814C123.033 95.198 124.041 94.89 125.217 94.89C125.553 94.89 125.847 94.904 126.099 94.932C126.379 94.96 126.589 95.002 126.729 95.058ZM110.475 116.73V114.504H110.517C111.273 114.504 111.889 114.42 112.365 114.252C112.869 114.056 113.121 113.692 113.121 113.16V99.174C113.121 98.838 113.037 98.586 112.869 98.418C112.729 98.222 112.491 98.068 112.155 97.956C111.819 97.844 111.385 97.732 110.853 97.62L110.475 97.536V95.226H119.043V101.82L119.505 101.4V113.58C119.505 113.86 119.659 114.07 119.967 114.21C120.303 114.322 120.695 114.406 121.143 114.462C121.619 114.49 122.039 114.504 122.403 114.504H122.907V116.73H110.475ZM134.685 91.656C133.621 91.656 132.753 91.376 132.081 90.816C131.409 90.256 131.073 89.486 131.073 88.506C131.073 87.498 131.409 86.728 132.081 86.196C132.753 85.636 133.621 85.356 134.685 85.356C135.805 85.356 136.687 85.636 137.331 86.196C138.003 86.728 138.339 87.498 138.339 88.506C138.339 89.486 138.003 90.256 137.331 90.816C136.687 91.376 135.805 91.656 134.685 91.656ZM138.003 95.226V113.16C138.003 113.692 138.255 114.056 138.759 114.252C139.263 114.42 139.879 114.504 140.607 114.504H140.649V116.73H128.973V114.504H129.015C129.771 114.504 130.401 114.42 130.905 114.252C131.409 114.056 131.661 113.692 131.661 113.16V99.174C131.661 98.67 131.479 98.334 131.115 98.166C130.751 97.97 130.163 97.788 129.351 97.62L128.973 97.536V95.226H138.003ZM142.672 116.73V114.504H142.714C143.218 114.504 143.666 114.462 144.058 114.378C144.45 114.294 144.758 114.154 144.982 113.958C145.206 113.762 145.318 113.496 145.318 113.16V99.174C145.318 98.838 145.234 98.586 145.066 98.418C144.926 98.222 144.688 98.068 144.352 97.956C144.016 97.844 143.582 97.732 143.05 97.62L142.672 97.536V95.226H151.24V99.804L151.702 99.972V114.126C151.702 114.21 151.814 114.28 152.038 114.336C152.29 114.392 152.598 114.434 152.962 114.462C153.326 114.49 153.662 114.504 153.97 114.504H154.054V116.73H142.672ZM168.418 116.73H157.036V114.504H157.078C157.386 114.504 157.722 114.49 158.086 114.462C158.45 114.434 158.758 114.392 159.01 114.336C159.29 114.252 159.43 114.182 159.43 114.126V101.904C159.43 101.064 159.332 100.378 159.136 99.846C158.94 99.314 158.646 98.922 158.254 98.67C157.862 98.418 157.33 98.292 156.658 98.292C155.902 98.292 155.188 98.488 154.516 98.88C153.844 99.244 153.2 99.79 152.584 100.518C151.996 101.218 151.436 102.114 150.904 103.206L150.778 99.93C151.394 98.838 152.094 97.914 152.878 97.158C153.662 96.374 154.544 95.786 155.524 95.394C156.504 95.002 157.596 94.806 158.8 94.806C160.2 94.806 161.418 95.072 162.454 95.604C163.518 96.108 164.33 96.892 164.89 97.956C165.478 98.992 165.772 100.308 165.772 101.904V113.16C165.772 113.496 165.884 113.762 166.108 113.958C166.332 114.154 166.64 114.294 167.032 114.378C167.424 114.462 167.858 114.504 168.334 114.504H168.418V116.73ZM194.256 99.048C193.164 98.88 192.184 98.782 191.316 98.754C190.476 98.698 189.748 98.712 189.132 98.796C188.516 98.88 188.012 99.09 187.62 99.426L186.948 98.964C187.368 98.152 187.83 97.438 188.334 96.822C188.838 96.206 189.384 95.702 189.972 95.31C190.588 94.918 191.246 94.638 191.946 94.47C192.646 94.302 193.416 94.274 194.256 94.386V99.048ZM181.068 110.052C179.192 110.052 177.54 109.744 176.112 109.128C174.684 108.512 173.578 107.644 172.794 106.524C172.01 105.376 171.618 104.032 171.618 102.492C171.618 100.952 172.01 99.608 172.794 98.46C173.606 97.312 174.726 96.416 176.154 95.772C177.582 95.128 179.22 94.806 181.068 94.806C182.944 94.806 184.596 95.128 186.024 95.772C187.452 96.416 188.572 97.312 189.384 98.46C190.196 99.608 190.602 100.952 190.602 102.492C190.602 104.032 190.196 105.376 189.384 106.524C188.572 107.644 187.452 108.512 186.024 109.128C184.596 109.744 182.944 110.052 181.068 110.052ZM181.068 107.49C181.824 107.49 182.468 107.308 183 106.944C183.532 106.58 183.938 106.034 184.218 105.306C184.498 104.578 184.638 103.654 184.638 102.534C184.638 101.386 184.498 100.448 184.218 99.72C183.938 98.964 183.532 98.404 183 98.04C182.468 97.648 181.824 97.452 181.068 97.452C180.34 97.452 179.71 97.648 179.178 98.04C178.646 98.404 178.226 98.964 177.918 99.72C177.638 100.448 177.498 101.386 177.498 102.534C177.498 103.654 177.638 104.578 177.918 105.306C178.226 106.034 178.646 106.58 179.178 106.944C179.71 107.308 180.34 107.49 181.068 107.49ZM179.934 126.726C177.89 126.726 176.07 126.558 174.474 126.222C172.906 125.886 171.66 125.34 170.736 124.584C169.84 123.828 169.392 122.834 169.392 121.602C169.392 120.902 169.588 120.272 169.98 119.712C170.4 119.18 171.044 118.69 171.912 118.242C172.78 117.822 173.9 117.402 175.272 116.982L176.7 118.116C176.084 118.396 175.58 118.69 175.188 118.998C174.824 119.334 174.558 119.684 174.39 120.048C174.222 120.412 174.138 120.804 174.138 121.224C174.138 121.84 174.348 122.344 174.768 122.736C175.216 123.156 175.902 123.478 176.826 123.702C177.75 123.926 178.94 124.038 180.396 124.038H181.698C183.154 124.038 184.386 123.884 185.394 123.576C186.43 123.296 187.214 122.89 187.746 122.358C188.306 121.826 188.586 121.238 188.586 120.594C188.586 119.95 188.348 119.474 187.872 119.166C187.396 118.886 186.528 118.746 185.268 118.746H174.852L174.726 118.284C173.802 117.892 173.046 117.472 172.458 117.024C171.898 116.576 171.478 116.072 171.198 115.512C170.946 114.952 170.82 114.322 170.82 113.622C170.82 112.838 171.03 112.11 171.45 111.438C171.87 110.766 172.486 110.15 173.298 109.59C174.11 109.03 175.104 108.526 176.28 108.078L178.296 109.086C177.708 109.338 177.204 109.604 176.784 109.884C176.364 110.164 176.042 110.458 175.818 110.766C175.622 111.074 175.524 111.424 175.524 111.816C175.524 112.348 175.762 112.74 176.238 112.992C176.742 113.216 177.484 113.328 178.464 113.328H185.52C187.312 113.328 188.81 113.538 190.014 113.958C191.246 114.35 192.17 114.966 192.786 115.806C193.43 116.618 193.752 117.654 193.752 118.914C193.752 120.678 193.22 122.134 192.156 123.282C191.12 124.43 189.706 125.284 187.914 125.844C186.122 126.432 184.12 126.726 181.908 126.726H179.934ZM212.886 99.972H230.778V102.786H212.886V99.972ZM206.334 116.73V114.378H206.754C207.566 114.378 208.238 114.28 208.77 114.084C209.33 113.888 209.61 113.482 209.61 112.866V90.774C209.61 90.158 209.33 89.752 208.77 89.556C208.238 89.36 207.566 89.262 206.754 89.262H206.334V86.91H219.564V89.262H219.186C218.878 89.262 218.556 89.276 218.22 89.304C217.884 89.304 217.562 89.332 217.254 89.388C216.974 89.416 216.736 89.458 216.54 89.514C216.372 89.542 216.288 89.598 216.288 89.682V113.958C216.288 114.042 216.372 114.112 216.54 114.168C216.736 114.196 216.974 114.238 217.254 114.294C217.562 114.322 217.884 114.35 218.22 114.378C218.556 114.378 218.878 114.378 219.186 114.378H219.564V116.73H206.334ZM224.772 116.73V114.378H225.15C225.486 114.378 225.822 114.378 226.158 114.378C226.494 114.35 226.802 114.322 227.082 114.294C227.362 114.238 227.586 114.196 227.754 114.168C227.95 114.112 228.048 114.042 228.048 113.958V89.682C228.048 89.598 227.95 89.542 227.754 89.514C227.586 89.458 227.362 89.416 227.082 89.388C226.802 89.332 226.494 89.304 226.158 89.304C225.822 89.276 225.486 89.262 225.15 89.262H224.772V86.91H238.002V89.262H237.582C236.77 89.262 236.098 89.36 235.566 89.556C235.034 89.752 234.768 90.158 234.768 90.774V112.866C234.768 113.482 235.034 113.888 235.566 114.084C236.098 114.28 236.77 114.378 237.582 114.378H238.002V116.73H224.772ZM246.411 91.656C245.347 91.656 244.479 91.376 243.807 90.816C243.135 90.256 242.799 89.486 242.799 88.506C242.799 87.498 243.135 86.728 243.807 86.196C244.479 85.636 245.347 85.356 246.411 85.356C247.531 85.356 248.413 85.636 249.057 86.196C249.729 86.728 250.065 87.498 250.065 88.506C250.065 89.486 249.729 90.256 249.057 90.816C248.413 91.376 247.531 91.656 246.411 91.656ZM249.729 95.226V113.16C249.729 113.692 249.981 114.056 250.485 114.252C250.989 114.42 251.605 114.504 252.333 114.504H252.375V116.73H240.699V114.504H240.741C241.497 114.504 242.127 114.42 242.631 114.252C243.135 114.056 243.387 113.692 243.387 113.16V99.174C243.387 98.67 243.205 98.334 242.841 98.166C242.477 97.97 241.889 97.788 241.077 97.62L240.699 97.536V95.226H249.729ZM263.345 85.734V113.16C263.345 113.692 263.583 114.056 264.059 114.252C264.563 114.42 265.179 114.504 265.907 114.504H265.991V116.73H254.315V114.504H254.357C255.113 114.504 255.729 114.42 256.205 114.252C256.709 114.056 256.961 113.692 256.961 113.16V89.724C256.961 89.36 256.877 89.094 256.709 88.926C256.569 88.73 256.331 88.576 255.995 88.464C255.659 88.352 255.225 88.24 254.693 88.128L254.273 88.044V85.734H263.345ZM276.798 85.734V113.16C276.798 113.692 277.036 114.056 277.512 114.252C278.016 114.42 278.632 114.504 279.36 114.504H279.444V116.73H267.768V114.504H267.81C268.566 114.504 269.182 114.42 269.658 114.252C270.162 114.056 270.414 113.692 270.414 113.16V89.724C270.414 89.36 270.33 89.094 270.162 88.926C270.022 88.73 269.784 88.576 269.448 88.464C269.112 88.352 268.678 88.24 268.146 88.128L267.726 88.044V85.734H276.798ZM294.614 111.48C294.614 110.976 294.474 110.556 294.194 110.22C293.914 109.856 293.522 109.562 293.018 109.338C292.542 109.114 291.996 108.918 291.38 108.75C290.764 108.554 290.106 108.358 289.406 108.162C288.538 107.938 287.67 107.686 286.802 107.406C285.962 107.098 285.178 106.706 284.45 106.23C283.75 105.726 283.176 105.096 282.728 104.34C282.308 103.556 282.098 102.576 282.098 101.4C282.098 100 282.462 98.81 283.19 97.83C283.946 96.822 284.982 96.066 286.298 95.562C287.642 95.03 289.21 94.764 291.002 94.764C292.458 94.764 293.718 94.876 294.782 95.1C295.846 95.324 296.714 95.59 297.386 95.898C298.086 96.178 298.576 96.444 298.856 96.696V101.022H294.194V97.2C294.558 97.172 294.838 97.228 295.034 97.368C295.258 97.48 295.412 97.634 295.496 97.83C295.58 98.026 295.608 98.236 295.58 98.46C295.552 98.684 295.496 98.908 295.412 99.132C295.104 98.768 294.726 98.46 294.278 98.208C293.858 97.928 293.382 97.732 292.85 97.62C292.318 97.48 291.716 97.41 291.044 97.41C289.84 97.41 288.93 97.662 288.314 98.166C287.698 98.642 287.39 99.286 287.39 100.098C287.39 100.63 287.544 101.078 287.852 101.442C288.16 101.806 288.566 102.114 289.07 102.366C289.574 102.59 290.148 102.8 290.792 102.996C291.464 103.164 292.164 103.346 292.892 103.542C293.76 103.766 294.628 104.032 295.496 104.34C296.364 104.648 297.162 105.04 297.89 105.516C298.618 105.992 299.192 106.608 299.612 107.364C300.032 108.092 300.242 109.016 300.242 110.136C300.242 111.564 299.864 112.81 299.108 113.874C298.38 114.91 297.288 115.722 295.832 116.31C294.376 116.87 292.598 117.15 290.498 117.15C289.042 117.15 287.726 117.024 286.55 116.772C285.374 116.548 284.352 116.268 283.484 115.932C282.644 115.568 281.958 115.218 281.426 114.882V110.136H286.172V115.176C285.724 114.952 285.374 114.714 285.122 114.462C284.898 114.182 284.744 113.916 284.66 113.664C284.604 113.412 284.604 113.174 284.66 112.95C284.716 112.726 284.828 112.558 284.996 112.446C285.416 112.922 285.892 113.314 286.424 113.622C286.984 113.902 287.6 114.112 288.272 114.252C288.972 114.392 289.714 114.462 290.498 114.462C291.366 114.462 292.094 114.35 292.682 114.126C293.298 113.902 293.774 113.566 294.11 113.118C294.446 112.67 294.614 112.124 294.614 111.48ZM326.745 103.206L333.129 102.492L338.631 113.16C338.827 113.496 339.023 113.748 339.219 113.916C339.443 114.084 339.709 114.21 340.017 114.294C340.325 114.35 340.661 114.378 341.025 114.378H341.361V116.73H333.003L326.745 103.206ZM323.175 113.958C323.175 114.042 323.245 114.112 323.385 114.168C323.553 114.196 323.763 114.238 324.015 114.294C324.267 114.322 324.547 114.35 324.855 114.378C325.163 114.378 325.457 114.378 325.737 114.378H326.241V116.73H313.221V114.378H313.641C314.453 114.378 315.125 114.28 315.657 114.084C316.217 113.888 316.497 113.482 316.497 112.866V90.774C316.497 90.158 316.217 89.752 315.657 89.556C315.125 89.36 314.453 89.262 313.641 89.262H313.221V86.91H327.375C329.783 86.91 331.827 87.26 333.507 87.96C335.187 88.66 336.475 89.654 337.371 90.942C338.267 92.23 338.715 93.728 338.715 95.436C338.715 97.004 338.337 98.404 337.581 99.636C336.853 100.84 335.775 101.82 334.347 102.576C332.919 103.332 331.183 103.808 329.139 104.004C328.915 104.06 328.663 104.102 328.383 104.13C328.103 104.158 327.823 104.186 327.543 104.214C327.291 104.214 327.011 104.214 326.703 104.214H322.251V101.526H326.241C327.529 101.526 328.565 101.288 329.349 100.812C330.161 100.336 330.763 99.636 331.155 98.712C331.547 97.788 331.743 96.682 331.743 95.394C331.743 94.218 331.547 93.21 331.155 92.37C330.763 91.502 330.175 90.844 329.391 90.396C328.607 89.92 327.627 89.682 326.451 89.682H323.175V113.958ZM357.604 103.794L357.562 106.062C356.47 106.174 355.49 106.342 354.622 106.566C353.754 106.762 352.998 107.014 352.354 107.322C351.71 107.602 351.178 107.938 350.758 108.33C350.366 108.694 350.072 109.128 349.876 109.632C349.68 110.108 349.582 110.64 349.582 111.228C349.582 111.9 349.694 112.474 349.918 112.95C350.17 113.398 350.52 113.748 350.968 114C351.416 114.224 351.934 114.336 352.522 114.336C353.306 114.336 353.992 114.14 354.58 113.748C355.196 113.356 355.742 112.81 356.218 112.11C356.694 111.41 357.1 110.57 357.436 109.59L357.604 112.278C357.184 113.286 356.638 114.154 355.966 114.882C355.294 115.61 354.496 116.17 353.572 116.562C352.648 116.954 351.584 117.15 350.38 117.15C349.008 117.15 347.804 116.94 346.768 116.52C345.76 116.072 344.962 115.428 344.374 114.588C343.814 113.72 343.534 112.67 343.534 111.438C343.534 110.29 343.828 109.296 344.416 108.456C345.004 107.588 345.886 106.86 347.062 106.272C348.266 105.684 349.736 105.194 351.472 104.802C353.236 104.382 355.28 104.046 357.604 103.794ZM357.016 116.73V112.488L356.554 112.53V101.358C356.554 100.434 356.428 99.692 356.176 99.132C355.924 98.572 355.532 98.166 355 97.914C354.496 97.662 353.866 97.536 353.11 97.536C351.962 97.536 351.01 97.774 350.254 98.25C349.526 98.726 348.966 99.314 348.574 100.014C348.406 99.706 348.322 99.412 348.322 99.132C348.35 98.852 348.434 98.6 348.574 98.376C348.714 98.152 348.91 97.956 349.162 97.788C349.442 97.62 349.75 97.494 350.086 97.41V101.946H344.962V97.494C345.354 97.186 345.942 96.822 346.726 96.402C347.51 95.954 348.49 95.576 349.666 95.268C350.87 94.96 352.228 94.806 353.74 94.806C355.028 94.806 356.218 94.946 357.31 95.226C358.402 95.478 359.354 95.898 360.166 96.486C361.006 97.046 361.65 97.788 362.098 98.712C362.546 99.608 362.77 100.7 362.77 101.988V113.076C362.77 113.384 362.868 113.636 363.064 113.832C363.288 114.028 363.582 114.168 363.946 114.252C364.338 114.336 364.786 114.392 365.29 114.42H365.416V116.73H357.016ZM367.15 116.73V114.504H367.192C367.696 114.504 368.144 114.462 368.536 114.378C368.928 114.294 369.236 114.154 369.46 113.958C369.684 113.762 369.796 113.496 369.796 113.16V99.174C369.796 98.838 369.712 98.586 369.544 98.418C369.404 98.222 369.166 98.068 368.83 97.956C368.494 97.844 368.06 97.732 367.528 97.62L367.15 97.536V95.226H375.718V99.804L376.18 99.972V114.126C376.18 114.21 376.292 114.28 376.516 114.336C376.768 114.392 377.076 114.434 377.44 114.462C377.804 114.49 378.14 114.504 378.448 114.504H378.532V116.73H367.15ZM392.896 116.73H381.514V114.504H381.556C381.864 114.504 382.2 114.49 382.564 114.462C382.928 114.434 383.236 114.392 383.488 114.336C383.768 114.252 383.908 114.182 383.908 114.126V101.904C383.908 101.064 383.81 100.378 383.614 99.846C383.418 99.314 383.124 98.922 382.732 98.67C382.34 98.418 381.808 98.292 381.136 98.292C380.38 98.292 379.666 98.488 378.994 98.88C378.322 99.244 377.678 99.79 377.062 100.518C376.474 101.218 375.914 102.114 375.382 103.206L375.256 99.93C375.872 98.838 376.572 97.914 377.356 97.158C378.14 96.374 379.022 95.786 380.002 95.394C380.982 95.002 382.074 94.806 383.278 94.806C384.678 94.806 385.896 95.072 386.932 95.604C387.996 96.108 388.808 96.892 389.368 97.956C389.956 98.992 390.25 100.308 390.25 101.904V113.16C390.25 113.496 390.362 113.762 390.586 113.958C390.81 114.154 391.118 114.294 391.51 114.378C391.902 114.462 392.336 114.504 392.812 114.504H392.896V116.73ZM407.813 114.294C408.905 114.294 409.843 114.07 410.627 113.622C411.439 113.146 412.125 112.572 412.685 111.9C413.245 111.2 413.735 110.514 414.155 109.842L416.339 111.564C415.723 112.628 414.995 113.594 414.155 114.462C413.315 115.302 412.307 115.96 411.131 116.436C409.955 116.912 408.555 117.15 406.931 117.15C404.635 117.15 402.591 116.688 400.799 115.764C399.035 114.84 397.649 113.538 396.641 111.858C395.661 110.178 395.171 108.218 395.171 105.978C395.171 103.682 395.675 101.708 396.683 100.056C397.691 98.404 399.105 97.116 400.925 96.192C402.745 95.268 404.873 94.806 407.309 94.806C408.821 94.806 410.151 94.96 411.299 95.268C412.447 95.548 413.399 95.884 414.155 96.276C414.939 96.668 415.499 97.018 415.835 97.326V102.744H410.753V97.578C411.089 97.606 411.369 97.704 411.593 97.872C411.817 98.012 411.985 98.208 412.097 98.46C412.237 98.684 412.307 98.922 412.307 99.174C412.307 99.426 412.251 99.678 412.139 99.93C411.747 99.258 411.145 98.698 410.333 98.25C409.521 97.802 408.597 97.578 407.561 97.578C406.301 97.578 405.237 97.928 404.369 98.628C403.501 99.3 402.843 100.266 402.395 101.526C401.947 102.786 401.723 104.27 401.723 105.978C401.723 107.266 401.863 108.428 402.143 109.464C402.423 110.472 402.815 111.34 403.319 112.068C403.851 112.796 404.495 113.356 405.251 113.748C406.007 114.112 406.861 114.294 407.813 114.294ZM427.737 85.734V114.084C427.737 114.168 427.863 114.252 428.115 114.336C428.367 114.392 428.661 114.434 428.997 114.462C429.361 114.49 429.697 114.504 430.005 114.504H430.131V116.73H418.707V114.504H418.749C419.253 114.504 419.701 114.462 420.093 114.378C420.485 114.294 420.793 114.154 421.017 113.958C421.269 113.762 421.395 113.496 421.395 113.16V89.724C421.395 89.36 421.311 89.094 421.143 88.926C420.975 88.73 420.723 88.576 420.387 88.464C420.051 88.352 419.617 88.24 419.085 88.128L418.707 88.044V85.734H427.737ZM444.495 116.73H433.071V114.504H433.155C433.463 114.504 433.799 114.49 434.163 114.462C434.527 114.434 434.835 114.392 435.087 114.336C435.339 114.28 435.465 114.21 435.465 114.126V101.904C435.465 101.064 435.367 100.378 435.171 99.846C435.003 99.314 434.723 98.922 434.331 98.67C433.939 98.418 433.407 98.292 432.735 98.292C431.951 98.292 431.223 98.488 430.551 98.88C429.879 99.244 429.249 99.79 428.661 100.518C428.073 101.218 427.499 102.1 426.939 103.164L426.855 99.888C427.471 98.796 428.157 97.872 428.913 97.116C429.697 96.36 430.579 95.786 431.559 95.394C432.539 95.002 433.631 94.806 434.835 94.806C436.263 94.806 437.495 95.072 438.531 95.604C439.567 96.108 440.365 96.892 440.925 97.956C441.513 98.992 441.807 100.308 441.807 101.904V113.16C441.807 113.692 442.059 114.056 442.563 114.252C443.067 114.42 443.683 114.504 444.411 114.504H444.495V116.73ZM479.705 86.91V88.758H479.285C478.249 88.758 477.381 88.842 476.681 89.01C475.981 89.178 475.631 89.528 475.631 90.06V114.42H481.805C483.009 114.42 483.975 114.378 484.703 114.294C485.459 114.182 486.033 113.986 486.425 113.706C486.817 113.426 487.027 113.02 487.055 112.488L487.517 107.322H489.827V116.73H467.735V114.882H468.197C469.205 114.882 470.045 114.784 470.717 114.588C471.389 114.392 471.725 113.986 471.725 113.37V90.27C471.725 89.654 471.389 89.248 470.717 89.052C470.045 88.856 469.205 88.758 468.197 88.758H467.735V86.91H479.705ZM505.421 86.91V88.758H505.001C503.965 88.758 503.097 88.842 502.397 89.01C501.697 89.178 501.347 89.528 501.347 90.06V114.42H507.521C508.725 114.42 509.691 114.378 510.419 114.294C511.175 114.182 511.749 113.986 512.141 113.706C512.533 113.426 512.743 113.02 512.771 112.488L513.233 107.322H515.543V116.73H493.451V114.882H493.913C494.921 114.882 495.761 114.784 496.433 114.588C497.105 114.392 497.441 113.986 497.441 113.37V90.27C497.441 89.654 497.105 89.248 496.433 89.052C495.761 88.856 494.921 88.758 493.913 88.758H493.451V86.91H505.421ZM533.406 88.884C532.034 88.884 530.732 89.192 529.5 89.808C528.296 90.424 527.246 91.306 526.35 92.454C525.454 93.574 524.754 94.932 524.25 96.528C523.746 98.096 523.494 99.86 523.494 101.82C523.494 103.78 523.732 105.558 524.208 107.154C524.712 108.722 525.412 110.08 526.308 111.228C527.204 112.348 528.296 113.216 529.584 113.832C530.872 114.42 532.314 114.714 533.91 114.714C535.618 114.714 537.116 114.336 538.404 113.58C539.692 112.824 540.77 111.802 541.638 110.514C542.534 109.198 543.178 107.728 543.57 106.104L545.922 106.986C545.446 108.974 544.648 110.738 543.528 112.278C542.408 113.79 541.008 114.98 539.328 115.848C537.676 116.716 535.8 117.15 533.7 117.15C531.6 117.15 529.668 116.786 527.904 116.058C526.168 115.302 524.642 114.252 523.326 112.908C522.038 111.536 521.044 109.912 520.344 108.036C519.644 106.16 519.294 104.088 519.294 101.82C519.294 99.58 519.658 97.522 520.386 95.646C521.114 93.77 522.122 92.146 523.41 90.774C524.726 89.402 526.224 88.352 527.904 87.624C529.612 86.868 531.432 86.49 533.364 86.49C535.268 86.49 536.906 86.784 538.278 87.372C539.65 87.932 540.784 88.744 541.68 89.808C542.604 90.844 543.29 92.076 543.738 93.504L542.268 93.378L542.94 86.91H545.334V95.898H542.73C542.254 94.47 541.596 93.238 540.756 92.202C539.944 91.166 538.936 90.354 537.732 89.766C536.528 89.178 535.086 88.884 533.406 88.884Z" fill="black"/>
<defs>
<linearGradient id="paint0_linear_579_25" x1="274.53" y1="83.93" x2="274.53" y2="164.93" gradientUnits="userSpaceOnUse">
<stop offset="0.11" stop-color="#2484C6"/>
<stop offset="0.2" stop-color="#2484C6" stop-opacity="0.97"/>
<stop offset="0.31" stop-color="#2484C6" stop-opacity="0.89"/>
<stop offset="0.45" stop-color="#2484C6" stop-opacity="0.75"/>
<stop offset="0.59" stop-color="#2484C6" stop-opacity="0.56"/>
<stop offset="0.74" stop-color="#2484C6" stop-opacity="0.32"/>
<stop offset="0.9" stop-color="#2484C6" stop-opacity="0.03"/>
<stop offset="0.92" stop-color="#2484C6" stop-opacity="0"/>
</linearGradient>
</defs>
</svg>
