<?xml version="1.0" encoding="UTF-8"?>
<svg id="Layer_1" data-name="Layer 1" xmlns="http://www.w3.org/2000/svg" xmlns:xlink="http://www.w3.org/1999/xlink" viewBox="0 0 600 200">
  <defs>
    <style>
      .cls-1 {
        fill: none;
        stroke: #6a976c;
        stroke-miterlimit: 10;
        stroke-width: 3px;
      }

      .cls-2 {
        fill: url(#linear-gradient);
        stroke-width: 0px;
      }

      .cls-3 {
        letter-spacing: 0em;
      }

      .cls-3, .cls-4, .cls-5 {
        font-family: RobotoSerifNormalRoman-SemiBold, 'Roboto Serif';
        font-variation-settings: 'wdth' 100, 'opsz' 20, 'wght' 600, 'GRAD' 0;
        font-weight: 600;
      }

      .cls-6 {
        fill: #fff;
        font-size: 42px;
      }

      .cls-7, .cls-8 {
        font-family: RobotoSerifNormalItalic-Light, 'Roboto Serif';
        font-variation-settings: 'wdth' 100, 'opsz' 20, 'wght' 300, 'GRAD' 0;
        font-weight: 300;
      }

      .cls-8 {
        letter-spacing: -.03em;
      }

      .cls-4 {
        letter-spacing: 0em;
      }
    </style>
    <linearGradient id="linear-gradient" x1="274.53" y1="83.93" x2="274.53" y2="164.93" gradientUnits="userSpaceOnUse">
      <stop offset=".11" stop-color="#2484c6"/>
      <stop offset=".2" stop-color="#2484c6" stop-opacity=".97"/>
      <stop offset=".31" stop-color="#2484c6" stop-opacity=".89"/>
      <stop offset=".45" stop-color="#2484c6" stop-opacity=".75"/>
      <stop offset=".59" stop-color="#2484c6" stop-opacity=".56"/>
      <stop offset=".74" stop-color="#2484c6" stop-opacity=".32"/>
      <stop offset=".9" stop-color="#2484c6" stop-opacity=".03"/>
      <stop offset=".92" stop-color="#2484c6" stop-opacity="0"/>
    </linearGradient>
  </defs>
  <path class="cls-1" d="m31.64,116.48s24.7-36.48,45.89-41.8c14.39-3.61,40.06,4.05,57.32,13.19,16.33-12.31,35.55-39.86,68.05-40.13,28.38-.24,65.94,22.46,132.91,66.4,33.97-7.84,69.76-41.19,94.55-39.46,23,1.6,26.71,8.2,63.33,43.34"/>
  <path class="cls-2" d="m335.8,114.13c-25.33.4-35.34,1.72-35.47,3.55-.2,2.83,23.41,5.4,23.28,7.98-.32,6.02-130.07,5.08-130.13,8.42-.02,1.26,18.52,1.38,19.29,6.21.43,2.73-4.86,6.58-18.62,11.97l112.62-1.11s-16.18-8.87,8.65-10.42,65.4-13.75,18.84-19.51c-6.43-.44-9.08-4.24,1.55-7.09Z"/>
  <text class="cls-6" transform="translate(54.87 119.73)"><tspan class="cls-4" x="0" y="0">S</tspan><tspan class="cls-5" x="26.5" y="0">pring Hil</tspan><tspan class="cls-4" x="212.64" y="0">l</tspan><tspan class="cls-5" x="226.33" y="0">s </tspan><tspan class="cls-3" x="258.04" y="0">R</tspan><tspan class="cls-5" x="288.32" y="0" xml:space="preserve">anch  </tspan><tspan class="cls-7" x="413.1" y="0">L</tspan><tspan class="cls-8" x="438.51" y="0">L</tspan><tspan class="cls-7" x="462.79" y="0">C</tspan></text>
</svg>